<svg xmlns="http://www.w3.org/2000/svg" viewBox="0 0 50 50"><path d="M40.3-.1H9.7C4.4-.1 0 4.3 0 9.6v30.7C0 45.6 4.3 50 9.7 50h30.6c5.3 0 9.7-4.3 9.7-9.7V9.6c0-5.3-4.4-9.7-9.7-9.7zm2.8 5.8h1.1v8.5h-8.4V5.7h7.3zM17.9 19.8c1.6-2.2 4.2-3.7 7.1-3.7s5.5 1.5 7.1 3.7c1 1.5 1.7 3.2 1.7 5.1 0 4.9-3.9 8.8-8.8 8.8-4.8 0-8.8-4-8.8-8.8 0-1.8.6-3.6 1.7-5.1zm27.2 20.6c0 2.7-2.1 4.8-4.8 4.8H9.7c-2.6 0-4.8-2.2-4.8-4.8V19.8h7.5c-.6 1.6-1 3.3-1 5.1 0 7.6 6.1 13.7 13.7 13.7 7.5 0 13.7-6.2 13.7-13.7 0-1.8-.4-3.6-1-5.1h7.5v20.6z" fill="#7f7f7f"/></svg>