<?xml version="1.0" encoding="utf-8"?>
<!-- Generator: Adobe Illustrator 22.1.0, SVG Export Plug-In . SVG Version: 6.00 Build 0)  -->
<svg version="1.1" id="Слой_1" xmlns="http://www.w3.org/2000/svg" xmlns:xlink="http://www.w3.org/1999/xlink" x="0px" y="0px"
	 viewBox="0 0 50 50" style="enable-background:new 0 0 50 50;" xml:space="preserve">
<style type="text/css">
	.st0{fill:#7F7F7F;}
</style>
<g>
	<title>Layer 1</title>
	<path id="svg_1" class="st0" d="M40.3-0.1H9.7C4.4-0.1,0,4.3,0,9.6v10.2v20.5c0,5.3,4.3,9.7,9.7,9.7h30.6c5.3,0,9.7-4.3,9.7-9.7
		V19.8V9.6C50,4.3,45.6-0.1,40.3-0.1z M43.1,5.7l1.1,0v1.1v7.4l-8.4,0l0-8.5L43.1,5.7z M17.9,19.8c1.6-2.2,4.2-3.7,7.1-3.7
		s5.5,1.5,7.1,3.7c1,1.5,1.7,3.2,1.7,5.1c0,4.9-3.9,8.8-8.8,8.8c-4.8,0-8.8-4-8.8-8.8C16.2,23.1,16.8,21.3,17.9,19.8z M45.1,40.4
		c0,2.7-2.1,4.8-4.8,4.8H9.7c-2.6,0-4.8-2.2-4.8-4.8V19.8h7.5c-0.6,1.6-1,3.3-1,5.1c0,7.6,6.1,13.7,13.7,13.7
		c7.5,0,13.7-6.2,13.7-13.7c0-1.8-0.4-3.6-1-5.1h7.5V40.4z"/>
</g>
</svg>
