<svg version="1.1" id="Слой_1" xmlns="http://www.w3.org/2000/svg" x="0" y="0" viewBox="0 0 500 500" xml:space="preserve"><style>.st0{fill:#fff}</style><path class="st0" d="M475.9 301.9s-7.2-1-22.7-2.9-23.6-5.7-30.3-7.9c-6.7-2.1-16-6.9-19.8-8.8s-13.1-7.2-19.3-11C377.6 267.5 358 252 358 252s-17-15-20.8-18.1-18.6-18.4-18.6-18.4-15.5-17.9-17.9-21.5-2.1-2-5.4-5.9c-3.3-3.9-6.8-7.7-6.8-7.7s-9.2-11.1-11.9-16.2c-4-7.7-6.1-13.3-8.5-18.8-4.7-6.2-3-3.6-5.1-5.8-2.1-2.1-4.5-4.8-6.9-7.2s-11-11.9-11-11.9l-6.2-8.4L221 88.7s-25.1-25.8-28.4-27.9c-3.3-2.1-7.4-4.1-10.7-4.8-3.3-.7-9.1.2-14.3 2.9-5.3 2.6-5.5 4.8-10.3 10.5-4.8 5.7-9.3 21.5-9.3 21.5l-10 25.8s-16.2 38-22.4 51.8c-6.2 13.9-20.1 30.3-20.1 30.3l-38.4 34.6s-21.5 19.8-23.9 23.4c-2.4 3.6-6 12.4-4.3 23.2 1.7 10.7 9.6 17 13.6 22.2 4.1 5.3 11.9 9.8 17.9 11.9 6 2.1 14.8 1.9 19.3 1.2s18.1-6 18.1-6 1.2-1 .2-4.3-6.7-6.7-9.6-8.4c-2.9-1.7-2.1.5-5 1.7s-9.1 1.9-18.9 1.4-8.6-2.4-8.6-2.4l1.9-2.4 9.6-14.1 7.9-13.6 9.3-17 9.1-16 11.9-15.3 15.3-19.8 15.8-19.3 19.8-23.2s19.1-21 23.4-25.6c4.3-4.5 4.5-4.1 8.4-6.4 3.8-2.4 9.1-2.1 17.9-1.4 8.8.7 8.8 2.4 17 5.5s10 8.6 18.6 15.8 13.9 20.5 16.9 24.8c3 4.3 6.8 17.7 8.2 22.2s1.2 23.4 2.1 30.3c1 6.9 8.1 22.7 13.6 29.4 5.5 6.7 20.3 20.5 29.1 25.3 8.8 4.8 22.4 9.8 35.8 14.1 13.4 4.3 26.7 5 40.8 6.4s20.3.2 21.3.5c1 .2 17.4 8.8 22.9 10.7s22.7 5 32.2 6.2c9.6 1.2 20.3 1.2 20.3 1.2s3.6-.5 3.8-2.2c.3-1.5-12.9-11.5-12.9-11.5zm-402.8-53l-22.7 38.7s-1.2 1.4-2.6-3.1c-1.4-4.5-.7-13.4 3.6-20.1 4.3-6.7 4.1-6 9.8-11 0 0 7.6-6.2 10.5-6.7s1.4 2.2 1.4 2.2zm143-135.9c-5-.5-7.2-.5-10.7.5s-13.4 4.8-13.4 4.8l-9.8 3.3-10.5 7.2-9.8 9.1-17.9 17.4 6.9-17.7 8.6-22.7 8.1-23.4s3.6-11.9 8.4-14.3 6-3.1 11.5-1.7c5.5 1.4 6.9 3.3 9.8 6.7 2.9 3.3 8.4 10.3 8.4 10.3l5.7 8.4 6.7 8.8 2.4 3.6c-.1-.1.6.2-4.4-.3zm147.6 165.7c-5-1.4-14.8-4.1-20.3-6.7-5.5-2.6-18.1-9.3-24.1-13.9s-15-13.1-19.1-17.9c-4.1-4.8-6.4-11.9-9.6-19.3-3.1-7.4-1.7-19.1-1.7-19.1l5.7 6c4.1 5.3 13.1 14.8 20.3 23.4 7.2 8.6 14.3 13.9 21.7 20.8s20.1 16.2 29.4 22.2c9.3 6 9.8 6.9 9.8 6.9s-7.1-1-12.1-2.4zM35 375.9c12.8 0 21.5 8.5 21.5 21 0 12.3-8.8 20.8-21.5 20.8H17.5V443h-6.4v-67H35zM17.5 412h15.9c10.3 0 16.5-5.7 16.5-15.1 0-9.7-6.1-15.3-16.5-15.3H17.5V412zM79.7 442.9v-67h6.4v67h-6.4zM152.7 442.9h-39.9v-67h6.4v61.2h33.5v5.8zM212.3 422.4h-28.1l-7.4 20.5H170l25.1-67h6.3l25 67h-6.7l-7.4-20.5zm-26.2-5.5h24.3l-11.9-32.7h-.5l-11.9 32.7zM258.2 442.9v-61.2h-22.5v-5.8H287v5.8h-22.5v61.2h-6.3zM349.7 442.9h-40.5v-67h40.5v5.8h-34.1v24.1H348v5.7h-32.4v25.7h34.1v5.7zM377.5 425.5c.9 7.7 8.5 13 18.8 13 10 0 17.2-5.6 17.2-13 0-6.3-4.6-10.4-15-13l-7.7-1.9c-12.6-3.1-17.9-8.4-17.9-17.5 0-10.8 9.3-18.6 22.9-18.6 12.8 0 22.3 7.6 23 17.8h-6.4c-1-7.2-7.5-12-16.8-12-9.6 0-16.3 5.3-16.3 12.6 0 5.9 4.1 9.2 14.3 11.8l6.6 1.7c13.8 3.4 19.5 8.9 19.5 18.4 0 11.7-9.6 19.5-24.3 19.5-13.8 0-23.8-7.6-24.6-18.8h6.7zM468.2 439.8h-5.3v-21.2h-20.6v-5.3h20.6v-20.8h5.3v20.8h20.6v5.3h-20.6v21.2z"/></svg>