<svg xmlns="http://www.w3.org/2000/svg" viewBox="0 0 50 50"><path d="M47.6 12.3h-7.9c-.7 0-1.3.4-1.6.9 0 0-3.2 5.8-4.2 7.8-2.7 5.3-4.5 3.6-4.5 1.2v-8.5c0-1.5-1.2-2.7-2.7-2.7h-6c-1.7-.1-3.3.6-4.2 2 0 0 3-.5 3 3.6 0 1 .1 3.9.1 6.4 0 1-.7 1.8-1.7 1.8-.5 0-1-.2-1.4-.6-2.4-3.4-4.5-7.1-6-11-.3-.6-.9-1-1.5-1H1.8c-.7 0-1.2.5-1.2 1.2 0 .1 0 .3.1.4 2.1 6.2 11.6 25 22.3 25h4.5c1 0 1.8-.8 1.8-1.8v-2.7c0-1 .8-1.8 1.8-1.8.4 0 .9.2 1.2.5l5.4 5.1c.5.5 1.1.7 1.8.7h7.1c3.4 0 3.4-2.4 1.6-4.2-1.3-1.3-6.1-6.3-6.1-6.3-.8-.9-.9-2.2-.2-3.2 1.5-2 4.1-5.3 5.1-6.8 1.5-1.9 4.2-6 .6-6z" fill="#fff"/></svg>